<?xml version="1.0" encoding="UTF-8" standalone="no"?>
<!DOCTYPE svg PUBLIC "-//W3C//DTD SVG 1.1//EN" "http://www.w3.org/Graphics/SVG/1.1/DTD/svg11.dtd">
<svg xmlns="http://www.w3.org/2000/svg" version="1.1" viewBox="0.00 0.00 500.00 500.00">
<g stroke-width="2.00" fill="none" stroke-linecap="butt">
<path stroke="#fb8838" vector-effect="non-scaling-stroke" d="
  M 219.01 251.07
  C 216.97 250.94 215.16 250.16 214.61 248.08
  Q 213.20 242.69 211.41 237.41
  A 1.66 1.66 0.0 0 0 210.48 236.41
  L 186.51 226.28
  A 4.86 4.85 -89.7 0 1 183.89 223.63
  L 167.17 182.68
  A 1.81 1.79 78.7 0 0 165.51 181.56
  L 136.76 181.59
  A 1.30 1.28 -79.3 0 0 135.56 182.42
  Q 131.68 192.66 128.00 202.11
  Q 127.15 204.31 125.14 205.46
  Q 120.78 207.96 116.05 210.56
  C 114.32 211.51 112.46 210.71 111.15 209.39"
/>
<path stroke="#fb8838" vector-effect="non-scaling-stroke" d="
  M 221.34 259.18
  Q 218.55 261.10 219.29 263.64
  Q 221.76 272.08 224.16 280.01
  Q 225.36 284.02 227.59 286.47
  Q 235.37 295.03 244.32 305.02
  A 10.23 10.13 -75.2 0 1 246.44 308.70
  L 257.00 341.56
  Q 257.25 342.35 256.42 342.35
  L 229.76 342.31
  Q 229.12 342.31 228.95 341.68
  Q 226.74 333.11 224.71 325.34
  C 222.51 316.90 218.43 309.69 214.73 301.80
  Q 213.84 299.88 212.53 298.37
  Q 207.35 292.39 201.45 286.14
  A 10.17 10.07 -76.9 0 1 199.28 282.62
  L 190.16 257.44
  A 4.07 4.06 -4.9 0 0 187.04 254.82
  L 172.56 252.25
  A 3.12 3.11 20.3 0 0 169.33 253.73
  L 152.48 282.28
  A 0.48 0.48 0.0 0 1 151.90 282.48
  Q 148.76 281.29 149.24 278.44
  C 149.74 275.47 152.07 268.70 146.54 268.54
  C 142.62 268.42 142.46 275.97 142.39 278.46
  A 0.89 0.87 85.9 0 1 141.68 279.29
  L 135.37 280.49
  Q 132.11 281.10 132.50 284.39
  L 132.55 284.84
  A 2.85 2.85 0.0 0 0 135.87 287.32
  L 143.54 285.98
  A 1.91 1.89 -36.5 0 1 144.72 286.15
  Q 147.16 287.40 149.27 289.58
  A 1.52 1.49 23.6 0 1 149.69 290.62
  L 149.75 297.97
  A 1.94 1.93 -14.8 0 1 148.75 299.68
  L 141.08 303.95
  A 3.69 3.67 80.0 0 0 139.24 306.59
  L 136.62 323.21
  Q 136.55 323.70 136.04 323.71
  Q 132.63 323.72 131.00 321.23
  C 129.28 318.62 128.30 314.87 124.11 316.34
  Q 119.02 318.13 113.60 320.07
  C 110.59 321.15 110.44 325.53 110.00 328.12
  Q 109.91 328.68 109.42 328.94
  Q 106.98 330.24 104.31 331.31
  C 102.55 332.02 101.52 333.42 100.76 335.11
  Q 99.24 338.47 97.54 341.72
  Q 97.23 342.31 96.56 342.32
  L 79.27 342.34
  Q 78.71 342.34 78.71 341.77
  L 78.70 315.94
  A 0.68 0.68 0.0 0 1 79.29 315.27
  C 94.54 313.15 105.92 300.95 106.78 285.43
  Q 107.53 271.80 97.71 261.55
  Q 97.23 261.05 97.31 260.36
  L 97.70 256.83
  Q 97.77 256.24 98.35 256.13
  Q 103.86 255.08 108.09 258.64
  Q 109.04 259.44 109.14 260.14
  Q 109.99 266.12 111.55 273.31
  Q 112.20 276.35 115.31 276.24
  Q 115.97 276.22 116.54 275.87
  Q 118.69 274.57 118.25 272.11
  L 115.29 255.55
  A 1.38 1.35 -77.8 0 0 114.74 254.68
  Q 111.11 252.06 107.08 249.78
  C 104.41 248.27 100.72 248.73 97.77 248.79
  A 1.20 1.20 0.0 0 1 96.65 248.09
  C 95.59 245.78 94.21 243.95 94.41 241.23
  Q 95.10 231.97 95.74 222.92
  A 1.53 1.53 0.0 0 1 96.58 221.66
  Q 99.08 220.41 101.53 218.77
  Q 104.12 217.04 103.06 214.17"
/>
<path stroke="#fb8838" vector-effect="non-scaling-stroke" d="
  M 60.46 243.32
  Q 62.38 245.45 61.52 247.51
  Q 58.22 255.41 60.49 260.70
  C 61.10 262.12 60.52 263.91 59.35 264.90
  C 51.62 271.42 48.62 281.43 51.52 290.99
  Q 55.61 304.50 70.53 308.32
  A 1.07 1.07 0.0 0 0 71.86 307.28
  L 71.81 287.60
  A 2.74 2.73 -70.8 0 0 70.78 285.46
  L 64.73 280.61
  Q 62.48 278.80 63.45 276.07
  Q 63.83 275.02 64.88 274.30
  A 2.55 2.54 -47.6 0 1 67.55 274.17
  Q 69.47 275.24 71.05 276.83
  Q 71.86 277.65 71.79 276.50
  Q 71.63 273.93 71.86 271.69
  Q 72.18 268.54 75.35 268.49
  Q 75.77 268.49 76.17 268.63
  Q 78.74 269.56 78.74 272.29
  L 78.76 290.76
  Q 78.76 292.04 79.64 291.11
  C 80.82 289.87 82.74 288.16 84.56 288.63
  C 87.49 289.38 88.53 292.50 86.12 294.64
  Q 83.09 297.33 79.48 300.05
  A 1.95 1.95 0.0 0 0 78.71 301.56
  L 78.60 307.54
  A 0.79 0.78 -5.8 0 0 79.56 308.32
  Q 91.31 305.64 96.76 296.00
  C 102.54 285.77 100.32 273.18 91.67 265.43
  C 90.35 264.24 89.46 262.75 89.98 260.91
  C 93.47 248.74 84.87 238.39 72.37 239.87
  C 70.59 240.08 68.99 239.10 67.90 237.78"
/>
<path stroke="#fb6233" vector-effect="non-scaling-stroke" d="
  M 165.26 274.16
  L 157.20 287.91
  A 4.62 4.60 60.2 0 0 156.56 290.29
  L 156.67 300.91
  A 3.85 3.85 0.0 0 1 154.66 304.34
  L 147.07 308.49
  A 3.02 3.01 79.9 0 0 145.54 310.69
  L 143.21 326.39
  A 3.75 3.71 -56.6 0 0 143.71 328.88
  L 151.20 341.28
  A 2.11 2.10 74.2 0 0 153.02 342.30
  L 200.06 342.25"
/>
<path stroke="#fd6317" vector-effect="non-scaling-stroke" d="
  M 200.06 342.25
  L 221.23 342.34
  Q 221.78 342.34 221.65 341.80
  Q 218.81 329.55 216.85 323.64
  Q 214.97 317.94 210.04 307.86
  Q 207.82 303.33 205.41 300.68
  Q 200.64 295.42 195.63 290.12
  C 194.78 289.23 194.14 288.20 193.70 287.06
  Q 188.97 274.89 184.72 262.70
  A 2.44 2.44 0.0 0 0 182.84 261.10
  L 174.73 259.65
  A 1.23 1.23 0.0 0 0 173.47 260.23
  L 165.26 274.16"
/>
<path stroke="#fe7e1c" vector-effect="non-scaling-stroke" d="
  M 200.06 342.25
  Q 199.12 337.76 197.89 333.37
  Q 197.01 330.23 196.14 326.56
  Q 195.14 322.31 193.31 318.49
  Q 190.23 312.06 187.05 305.37
  Q 185.37 301.84 182.88 299.07
  Q 178.88 294.62 175.01 289.95
  Q 170.26 284.22 168.37 277.64
  Q 168.08 276.64 167.36 275.21
  Q 167.12 274.74 166.60 274.70
  Q 165.82 274.63 165.26 274.16"
/>
<path stroke="#fb8838" vector-effect="non-scaling-stroke" d="
  M 61.85 333.70
  Q 61.74 334.02 61.51 334.25
  Q 59.54 336.29 57.01 335.03
  Q 54.22 333.64 51.27 331.81
  C 49.04 330.43 48.17 327.75 46.74 325.65
  Q 46.34 325.06 45.83 325.55
  L 41.89 329.34
  Q 41.26 329.94 41.26 330.81
  L 41.16 341.95
  A 0.41 0.40 0.7 0 0 41.57 342.36
  L 71.22 342.34
  A 0.57 0.56 0.0 0 0 71.79 341.78
  L 71.79 315.99
  A 0.76 0.75 4.5 0 0 71.15 315.25
  C 65.04 314.28 59.65 312.19 55.10 308.25
  A 0.30 0.30 0.0 0 0 54.62 308.38
  Q 52.79 313.34 51.57 317.85
  C 50.99 320.01 53.07 322.81 54.22 324.58
  C 55.74 326.92 58.30 327.85 60.54 329.30
  Q 62.87 330.81 61.85 333.70"
/>
<path stroke="#fb8838" vector-effect="non-scaling-stroke" d="
  M 115.08 333.93
  Q 112.91 335.33 110.18 336.32
  C 107.16 337.41 106.40 339.14 105.24 341.75
  A 0.38 0.37 -77.8 0 0 105.58 342.28
  L 143.14 342.33
  A 0.33 0.33 0.0 0 0 143.42 341.83
  L 138.04 332.86
  A 3.89 3.86 -6.7 0 0 135.86 331.15
  Q 132.49 330.11 128.89 329.00
  C 127.15 328.47 125.67 325.67 124.66 324.19
  Q 124.29 323.65 123.67 323.88
  L 118.23 325.93
  Q 117.61 326.16 117.48 326.81
  L 116.43 331.95
  A 3.12 3.10 -10.9 0 1 115.08 333.93"
/>
</g>
<path fill="#ff7f00" d="
  M 252.08 201.86
  C 235.81 167.50 256.64 131.65 286.14 113.50
  Q 311.50 97.90 342.22 95.73
  Q 349.64 95.20 357.47 95.34
  Q 394.33 95.99 423.82 114.55
  C 444.38 127.49 461.05 148.67 462.62 173.65
  Q 463.73 191.32 456.07 207.00
  C 437.55 244.91 390.63 262.32 352.01 260.62
  Q 335.51 259.90 308.50 253.75
  Q 307.97 253.62 307.52 253.95
  Q 302.06 258.04 296.66 260.63
  Q 274.11 271.50 248.08 272.10
  Q 246.36 272.14 247.71 271.06
  Q 250.57 268.78 253.24 267.03
  Q 260.08 262.56 267.98 257.62
  C 274.18 253.75 280.86 247.76 282.12 240.17
  A 1.51 1.50 -65.5 0 0 281.60 238.77
  C 269.66 228.83 258.77 215.99 252.08 201.86
  Z
  M 266.91 179.17
  Q 266.34 183.62 267.97 187.77
  C 270.48 194.14 278.21 195.21 284.34 193.97
  Q 284.55 193.92 284.54 193.71
  L 284.48 184.36
  A 0.17 0.17 0.0 0 0 284.24 184.21
  C 280.34 186.03 274.69 188.64 270.68 188.22
  A 1.96 1.95 -85.9 0 1 268.93 186.20
  C 269.02 184.12 270.43 182.34 271.75 180.84
  Q 276.41 175.59 282.18 174.52
  Q 282.80 174.41 282.80 173.78
  L 282.83 168.51
  Q 282.83 167.75 282.08 167.70
  Q 268.52 166.71 266.91 179.17
  Z
  M 294.8300 194.4900
  A 13.52 9.48 90.0 0 0 304.3100 180.9700
  A 13.52 9.48 90.0 0 0 294.8300 167.4500
  A 13.52 9.48 90.0 0 0 285.3500 180.9700
  A 13.52 9.48 90.0 0 0 294.8300 194.4900
  Z
  M 320.66 173.29
  C 320.57 170.03 318.59 168.38 315.58 167.95
  Q 310.43 167.21 305.81 167.78
  Q 305.22 167.86 305.37 168.43
  Q 308.77 181.51 305.10 193.38
  Q 304.90 194.00 305.55 194.00
  L 310.99 194.00
  Q 311.68 194.00 311.34 193.40
  C 307.25 186.16 308.47 178.21 315.93 174.24
  Q 317.03 173.66 318.18 173.86
  A 1.29 1.29 0.0 0 1 318.98 175.92
  C 314.61 181.56 310.59 186.08 314.29 193.77
  Q 314.39 193.97 314.61 193.98
  Q 318.27 194.06 321.70 193.94
  A 0.06 0.06 0.0 0 0 321.75 193.85
  C 318.70 188.31 318.24 181.24 322.89 176.57
  Q 324.91 174.54 327.14 174.05
  Q 331.06 173.18 328.81 176.50
  Q 327.47 178.48 325.97 180.43
  Q 321.19 186.63 324.55 193.73
  Q 324.68 194.00 324.99 194.00
  L 332.74 194.00
  A 0.23 0.23 0.0 0 0 332.96 193.71
  C 331.17 187.40 330.54 179.55 332.03 172.85
  Q 332.50 170.74 333.01 168.53
  Q 333.18 167.82 332.46 167.73
  Q 324.30 166.67 321.59 173.46
  Q 320.73 175.62 320.66 173.29
  Z
  M 344.17 185.85
  Q 344.42 184.23 345.40 182.87
  Q 350.49 175.83 357.36 174.55
  Q 358.00 174.43 358.00 173.78
  L 358.01 168.47
  Q 358.01 167.87 357.42 167.79
  C 348.68 166.57 342.36 171.54 342.04 180.32
  C 341.78 187.42 344.45 193.17 352.37 194.18
  Q 356.10 194.66 359.56 193.96
  Q 359.77 193.92 359.77 193.71
  L 359.73 184.34
  A 0.18 0.17 77.3 0 0 359.48 184.18
  C 354.74 186.41 350.43 188.25 346.25 188.27
  A 2.10 2.10 0.0 0 1 344.17 185.85
  Z
  M 385.75 192.03
  L 385.76 184.74
  A 0.47 0.47 0.0 0 0 385.08 184.32
  C 381.40 186.16 375.97 188.59 371.98 188.23
  A 2.03 2.02 6.7 0 1 370.15 185.92
  C 370.97 180.33 379.08 175.29 383.34 174.58
  Q 384.00 174.47 384.00 173.80
  L 384.01 168.50
  Q 384.01 167.89 383.42 167.80
  C 372.66 166.05 366.87 174.18 368.24 184.12
  C 369.40 192.50 376.02 195.28 383.90 194.17
  C 386.78 193.76 389.73 194.10 392.63 193.95
  A 0.37 0.37 0.0 0 0 392.94 193.41
  C 389.02 185.95 390.25 176.99 398.94 173.80
  Q 400.14 173.36 400.86 174.55
  A 1.28 1.27 -40.8 0 1 400.75 176.00
  C 396.28 181.41 392.44 186.21 396.00 193.70
  Q 396.14 194.00 396.48 194.00
  L 405.99 193.99
  A 0.19 0.19 0.0 0 0 406.16 193.72
  C 402.60 185.93 401.68 177.14 401.73 168.60
  A 0.67 0.66 -90.0 0 0 401.07 167.93
  L 389.74 167.87
  Q 389.14 167.87 389.31 168.45
  C 391.64 176.50 389.33 184.28 386.44 192.15
  Q 385.75 194.02 385.75 192.03
  Z
  M 340.98 193.34
  C 338.55 185.62 339.05 175.92 341.01 168.54
  Q 341.17 167.92 340.53 167.92
  L 335.27 167.89
  Q 334.70 167.89 334.85 168.44
  Q 338.17 180.52 334.76 193.34
  Q 334.58 194.00 335.26 194.00
  L 340.50 194.00
  Q 341.19 194.00 340.98 193.34
  Z
  M 411.11 187.50
  Q 410.71 186.68 411.26 185.89
  Q 412.75 183.73 414.40 181.68
  C 417.58 177.72 418.11 172.84 415.88 168.19
  Q 415.76 167.93 415.48 167.93
  L 405.91 167.88
  A 0.23 0.22 -11.8 0 0 405.70 168.19
  Q 409.87 177.80 410.01 189.00
  Q 410.04 191.24 410.15 193.42
  Q 410.19 194.00 410.77 194.00
  L 422.03 194.00
  Q 422.67 194.00 422.51 193.37
  C 420.13 184.38 422.89 177.07 425.76 168.62
  Q 425.98 167.96 425.28 167.95
  L 419.10 167.86
  A 0.31 0.30 -13.5 0 0 418.82 168.31
  C 422.66 175.42 421.77 185.89 412.48 188.15
  A 1.21 1.20 -19.5 0 1 411.11 187.50
  Z
  M 430.99 181.37
  C 430.87 179.45 431.52 172.96 434.91 173.66
  Q 438.33 174.36 441.32 176.22
  A 0.51 0.50 15.9 0 0 442.09 175.80
  L 442.12 168.52
  Q 442.13 167.92 441.53 167.92
  L 426.99 167.90
  A 0.39 0.38 82.5 0 0 426.62 168.39
  Q 429.97 180.81 426.47 193.35
  Q 426.28 194.00 426.96 194.00
  L 441.55 194.00
  Q 442.10 194.00 442.10 193.45
  L 442.12 186.48
  A 0.41 0.41 0.0 0 0 441.52 186.11
  Q 436.73 188.55 431.73 188.34
  Q 428.91 188.22 430.05 185.63
  L 430.52 184.56
  Q 431.54 182.25 433.98 182.88
  L 438.31 183.99
  Q 439.00 184.17 439.00 183.45
  L 438.96 180.06
  Q 438.95 179.06 438.02 179.44
  L 431.86 181.91
  A 0.63 0.63 0.0 0 1 430.99 181.37
  Z"
/>
<ellipse fill="#ff7f00" cx="0.00" cy="0.00" transform="translate(294.83,180.95) rotate(-43.0)" rx="9.61" ry="3.77"/>
<path fill="#fa472d" d="
  M 219.01 251.07
  C 216.97 250.94 215.16 250.16 214.61 248.08
  Q 213.20 242.69 211.41 237.41
  A 1.66 1.66 0.0 0 0 210.48 236.41
  L 186.51 226.28
  A 4.86 4.85 -89.7 0 1 183.89 223.63
  L 167.17 182.68
  A 1.81 1.79 78.7 0 0 165.51 181.56
  L 136.76 181.59
  A 1.30 1.28 -79.3 0 0 135.56 182.42
  Q 131.68 192.66 128.00 202.11
  Q 127.15 204.31 125.14 205.46
  Q 120.78 207.96 116.05 210.56
  C 114.32 211.51 112.46 210.71 111.15 209.39
  C 111.28 207.07 110.85 205.43 113.40 204.09
  Q 117.49 201.93 121.22 199.62
  Q 121.68 199.34 121.87 198.84
  Q 126.20 187.70 130.22 177.16
  Q 131.11 174.84 133.66 174.84
  Q 149.82 174.82 169.07 174.84
  A 3.44 3.42 -11.1 0 1 172.25 176.97
  L 189.73 219.79
  Q 189.90 220.22 190.33 220.40
  L 215.49 231.06
  A 3.17 3.16 2.4 0 1 217.26 232.98
  Q 219.42 239.51 221.17 246.13
  Q 221.42 247.08 221.32 248.00
  C 221.14 249.63 219.65 250.05 219.01 251.07
  Z"
/>
<path fill="#fcc942" d="
  M 219.01 251.07
  L 221.34 259.18
  Q 218.55 261.10 219.29 263.64
  Q 221.76 272.08 224.16 280.01
  Q 225.36 284.02 227.59 286.47
  Q 235.37 295.03 244.32 305.02
  A 10.23 10.13 -75.2 0 1 246.44 308.70
  L 257.00 341.56
  Q 257.25 342.35 256.42 342.35
  L 229.76 342.31
  Q 229.12 342.31 228.95 341.68
  Q 226.74 333.11 224.71 325.34
  C 222.51 316.90 218.43 309.69 214.73 301.80
  Q 213.84 299.88 212.53 298.37
  Q 207.35 292.39 201.45 286.14
  A 10.17 10.07 -76.9 0 1 199.28 282.62
  L 190.16 257.44
  A 4.07 4.06 -4.9 0 0 187.04 254.82
  L 172.56 252.25
  A 3.12 3.11 20.3 0 0 169.33 253.73
  L 152.48 282.28
  A 0.48 0.48 0.0 0 1 151.90 282.48
  Q 148.76 281.29 149.24 278.44
  C 149.74 275.47 152.07 268.70 146.54 268.54
  C 142.62 268.42 142.46 275.97 142.39 278.46
  A 0.89 0.87 85.9 0 1 141.68 279.29
  L 135.37 280.49
  Q 132.11 281.10 132.50 284.39
  L 132.55 284.84
  A 2.85 2.85 0.0 0 0 135.87 287.32
  L 143.54 285.98
  A 1.91 1.89 -36.5 0 1 144.72 286.15
  Q 147.16 287.40 149.27 289.58
  A 1.52 1.49 23.6 0 1 149.69 290.62
  L 149.75 297.97
  A 1.94 1.93 -14.8 0 1 148.75 299.68
  L 141.08 303.95
  A 3.69 3.67 80.0 0 0 139.24 306.59
  L 136.62 323.21
  Q 136.55 323.70 136.04 323.71
  Q 132.63 323.72 131.00 321.23
  C 129.28 318.62 128.30 314.87 124.11 316.34
  Q 119.02 318.13 113.60 320.07
  C 110.59 321.15 110.44 325.53 110.00 328.12
  Q 109.91 328.68 109.42 328.94
  Q 106.98 330.24 104.31 331.31
  C 102.55 332.02 101.52 333.42 100.76 335.11
  Q 99.24 338.47 97.54 341.72
  Q 97.23 342.31 96.56 342.32
  L 79.27 342.34
  Q 78.71 342.34 78.71 341.77
  L 78.70 315.94
  A 0.68 0.68 0.0 0 1 79.29 315.27
  C 94.54 313.15 105.92 300.95 106.78 285.43
  Q 107.53 271.80 97.71 261.55
  Q 97.23 261.05 97.31 260.36
  L 97.70 256.83
  Q 97.77 256.24 98.35 256.13
  Q 103.86 255.08 108.09 258.64
  Q 109.04 259.44 109.14 260.14
  Q 109.99 266.12 111.55 273.31
  Q 112.20 276.35 115.31 276.24
  Q 115.97 276.22 116.54 275.87
  Q 118.69 274.57 118.25 272.11
  L 115.29 255.55
  A 1.38 1.35 -77.8 0 0 114.74 254.68
  Q 111.11 252.06 107.08 249.78
  C 104.41 248.27 100.72 248.73 97.77 248.79
  A 1.20 1.20 0.0 0 1 96.65 248.09
  C 95.59 245.78 94.21 243.95 94.41 241.23
  Q 95.10 231.97 95.74 222.92
  A 1.53 1.53 0.0 0 1 96.58 221.66
  Q 99.08 220.41 101.53 218.77
  Q 104.12 217.04 103.06 214.17
  L 111.15 209.39
  C 112.46 210.71 114.32 211.51 116.05 210.56
  Q 120.78 207.96 125.14 205.46
  Q 127.15 204.31 128.00 202.11
  Q 131.68 192.66 135.56 182.42
  A 1.30 1.28 -79.3 0 1 136.76 181.59
  L 165.51 181.56
  A 1.81 1.79 78.7 0 1 167.17 182.68
  L 183.89 223.63
  A 4.86 4.85 -89.7 0 0 186.51 226.28
  L 210.48 236.41
  A 1.66 1.66 0.0 0 1 211.41 237.41
  Q 213.20 242.69 214.61 248.08
  C 215.16 250.16 216.97 250.94 219.01 251.07
  Z"
/>
<path fill="#fa472d" d="
  M 103.06 214.17
  Q 104.12 217.04 101.53 218.77
  Q 99.08 220.41 96.58 221.66
  A 1.53 1.53 0.0 0 0 95.74 222.92
  Q 95.10 231.97 94.41 241.23
  C 94.21 243.95 95.59 245.78 96.65 248.09
  A 1.20 1.20 0.0 0 0 97.77 248.79
  C 100.72 248.73 104.41 248.27 107.08 249.78
  Q 111.11 252.06 114.74 254.68
  A 1.38 1.35 -77.8 0 1 115.29 255.55
  L 118.25 272.11
  Q 118.69 274.57 116.54 275.87
  Q 115.97 276.22 115.31 276.24
  Q 112.20 276.35 111.55 273.31
  Q 109.99 266.12 109.14 260.14
  Q 109.04 259.44 108.09 258.64
  Q 103.86 255.08 98.35 256.13
  Q 97.77 256.24 97.70 256.83
  L 97.31 260.36
  Q 97.23 261.05 97.71 261.55
  Q 107.53 271.80 106.78 285.43
  C 105.92 300.95 94.54 313.15 79.29 315.27
  A 0.68 0.68 0.0 0 0 78.70 315.94
  L 78.71 341.77
  Q 78.71 342.34 79.27 342.34
  L 96.56 342.32
  Q 97.23 342.31 97.54 341.72
  Q 99.24 338.47 100.76 335.11
  C 101.52 333.42 102.55 332.02 104.31 331.31
  Q 106.98 330.24 109.42 328.94
  Q 109.91 328.68 110.00 328.12
  C 110.44 325.53 110.59 321.15 113.60 320.07
  Q 119.02 318.13 124.11 316.34
  C 128.30 314.87 129.28 318.62 131.00 321.23
  Q 132.63 323.72 136.04 323.71
  Q 136.55 323.70 136.62 323.21
  L 139.24 306.59
  A 3.69 3.67 80.0 0 1 141.08 303.95
  L 148.75 299.68
  A 1.94 1.93 -14.8 0 0 149.75 297.97
  L 149.69 290.62
  A 1.52 1.49 23.6 0 0 149.27 289.58
  Q 147.16 287.40 144.72 286.15
  A 1.91 1.89 -36.5 0 0 143.54 285.98
  L 135.87 287.32
  A 2.85 2.85 0.0 0 1 132.55 284.84
  L 132.50 284.39
  Q 132.11 281.10 135.37 280.49
  L 141.68 279.29
  A 0.89 0.87 85.9 0 0 142.39 278.46
  C 142.46 275.97 142.62 268.42 146.54 268.54
  C 152.07 268.70 149.74 275.47 149.24 278.44
  Q 148.76 281.29 151.90 282.48
  A 0.48 0.48 0.0 0 0 152.48 282.28
  L 169.33 253.73
  A 3.12 3.11 20.3 0 1 172.56 252.25
  L 187.04 254.82
  A 4.07 4.06 -4.9 0 1 190.16 257.44
  L 199.28 282.62
  A 10.17 10.07 -76.9 0 0 201.45 286.14
  Q 207.35 292.39 212.53 298.37
  Q 213.84 299.88 214.73 301.80
  C 218.43 309.69 222.51 316.90 224.71 325.34
  Q 226.74 333.11 228.95 341.68
  Q 229.12 342.31 229.76 342.31
  L 256.42 342.35
  Q 257.25 342.35 257.00 341.56
  L 246.44 308.70
  A 10.23 10.13 -75.2 0 0 244.32 305.02
  Q 235.37 295.03 227.59 286.47
  Q 225.36 284.02 224.16 280.01
  Q 221.76 272.08 219.29 263.64
  Q 218.55 261.10 221.34 259.18
  Q 223.25 259.05 224.56 259.97
  Q 225.55 260.66 225.87 261.78
  Q 228.56 271.18 231.18 279.62
  Q 231.45 280.50 232.07 281.19
  L 250.44 301.52
  A 7.30 7.25 15.1 0 1 251.96 304.14
  Q 257.67 321.50 263.99 340.90
  C 264.64 342.88 265.41 344.63 265.17 346.68
  A 2.99 2.98 -86.5 0 1 262.21 349.31
  L 37.78 349.31
  A 3.02 3.02 0.0 0 1 34.76 346.28
  L 34.77 327.81
  Q 34.77 326.69 35.58 325.92
  L 43.34 318.53
  Q 44.41 317.51 44.87 316.10
  L 49.20 302.86
  A 1.23 1.22 -50.9 0 0 49.10 301.85
  C 47.99 299.87 46.76 298.05 45.92 295.90
  Q 39.55 279.61 49.59 265.34
  C 50.62 263.88 51.69 262.71 52.86 261.39
  Q 53.30 260.91 53.15 260.27
  Q 51.28 252.30 55.39 244.82
  Q 56.96 241.97 60.46 243.32
  Q 62.38 245.45 61.52 247.51
  Q 58.22 255.41 60.49 260.70
  C 61.10 262.12 60.52 263.91 59.35 264.90
  C 51.62 271.42 48.62 281.43 51.52 290.99
  Q 55.61 304.50 70.53 308.32
  A 1.07 1.07 0.0 0 0 71.86 307.28
  L 71.81 287.60
  A 2.74 2.73 -70.8 0 0 70.78 285.46
  L 64.73 280.61
  Q 62.48 278.80 63.45 276.07
  Q 63.83 275.02 64.88 274.30
  A 2.55 2.54 -47.6 0 1 67.55 274.17
  Q 69.47 275.24 71.05 276.83
  Q 71.86 277.65 71.79 276.50
  Q 71.63 273.93 71.86 271.69
  Q 72.18 268.54 75.35 268.49
  Q 75.77 268.49 76.17 268.63
  Q 78.74 269.56 78.74 272.29
  L 78.76 290.76
  Q 78.76 292.04 79.64 291.11
  C 80.82 289.87 82.74 288.16 84.56 288.63
  C 87.49 289.38 88.53 292.50 86.12 294.64
  Q 83.09 297.33 79.48 300.05
  A 1.95 1.95 0.0 0 0 78.71 301.56
  L 78.60 307.54
  A 0.79 0.78 -5.8 0 0 79.56 308.32
  Q 91.31 305.64 96.76 296.00
  C 102.54 285.77 100.32 273.18 91.67 265.43
  C 90.35 264.24 89.46 262.75 89.98 260.91
  C 93.47 248.74 84.87 238.39 72.37 239.87
  C 70.59 240.08 68.99 239.10 67.90 237.78
  C 68.21 232.75 71.75 232.67 75.99 232.70
  C 79.82 232.72 83.83 234.38 87.22 236.33
  Q 87.93 236.74 87.98 235.92
  Q 88.50 227.49 88.94 220.40
  Q 89.09 218.10 91.28 216.85
  Q 94.79 214.83 98.13 212.92
  Q 99.32 212.24 100.63 212.61
  Q 102.04 213.01 103.06 214.17
  Z
  M 165.26 274.16
  L 157.20 287.91
  A 4.62 4.60 60.2 0 0 156.56 290.29
  L 156.67 300.91
  A 3.85 3.85 0.0 0 1 154.66 304.34
  L 147.07 308.49
  A 3.02 3.01 79.9 0 0 145.54 310.69
  L 143.21 326.39
  A 3.75 3.71 -56.6 0 0 143.71 328.88
  L 151.20 341.28
  A 2.11 2.10 74.2 0 0 153.02 342.30
  L 200.06 342.25
  L 221.23 342.34
  Q 221.78 342.34 221.65 341.80
  Q 218.81 329.55 216.85 323.64
  Q 214.97 317.94 210.04 307.86
  Q 207.82 303.33 205.41 300.68
  Q 200.64 295.42 195.63 290.12
  C 194.78 289.23 194.14 288.20 193.70 287.06
  Q 188.97 274.89 184.72 262.70
  A 2.44 2.44 0.0 0 0 182.84 261.10
  L 174.73 259.65
  A 1.23 1.23 0.0 0 0 173.47 260.23
  L 165.26 274.16
  Z
  M 61.85 333.70
  Q 61.74 334.02 61.51 334.25
  Q 59.54 336.29 57.01 335.03
  Q 54.22 333.64 51.27 331.81
  C 49.04 330.43 48.17 327.75 46.74 325.65
  Q 46.34 325.06 45.83 325.55
  L 41.89 329.34
  Q 41.26 329.94 41.26 330.81
  L 41.16 341.95
  A 0.41 0.40 0.7 0 0 41.57 342.36
  L 71.22 342.34
  A 0.57 0.56 0.0 0 0 71.79 341.78
  L 71.79 315.99
  A 0.76 0.75 4.5 0 0 71.15 315.25
  C 65.04 314.28 59.65 312.19 55.10 308.25
  A 0.30 0.30 0.0 0 0 54.62 308.38
  Q 52.79 313.34 51.57 317.85
  C 50.99 320.01 53.07 322.81 54.22 324.58
  C 55.74 326.92 58.30 327.85 60.54 329.30
  Q 62.87 330.81 61.85 333.70
  Z
  M 115.08 333.93
  Q 112.91 335.33 110.18 336.32
  C 107.16 337.41 106.40 339.14 105.24 341.75
  A 0.38 0.37 -77.8 0 0 105.58 342.28
  L 143.14 342.33
  A 0.33 0.33 0.0 0 0 143.42 341.83
  L 138.04 332.86
  A 3.89 3.86 -6.7 0 0 135.86 331.15
  Q 132.49 330.11 128.89 329.00
  C 127.15 328.47 125.67 325.67 124.66 324.19
  Q 124.29 323.65 123.67 323.88
  L 118.23 325.93
  Q 117.61 326.16 117.48 326.81
  L 116.43 331.95
  A 3.12 3.10 -10.9 0 1 115.08 333.93
  Z"
/>
<path fill="#fcc942" d="
  M 67.90 237.78
  C 68.99 239.10 70.59 240.08 72.37 239.87
  C 84.87 238.39 93.47 248.74 89.98 260.91
  C 89.46 262.75 90.35 264.24 91.67 265.43
  C 100.32 273.18 102.54 285.77 96.76 296.00
  Q 91.31 305.64 79.56 308.32
  A 0.79 0.78 -5.8 0 1 78.60 307.54
  L 78.71 301.56
  A 1.95 1.95 0.0 0 1 79.48 300.05
  Q 83.09 297.33 86.12 294.64
  C 88.53 292.50 87.49 289.38 84.56 288.63
  C 82.74 288.16 80.82 289.87 79.64 291.11
  Q 78.76 292.04 78.76 290.76
  L 78.74 272.29
  Q 78.74 269.56 76.17 268.63
  Q 75.77 268.49 75.35 268.49
  Q 72.18 268.54 71.86 271.69
  Q 71.63 273.93 71.79 276.50
  Q 71.86 277.65 71.05 276.83
  Q 69.47 275.24 67.55 274.17
  A 2.55 2.54 -47.6 0 0 64.88 274.30
  Q 63.83 275.02 63.45 276.07
  Q 62.48 278.80 64.73 280.61
  L 70.78 285.46
  A 2.74 2.73 -70.8 0 1 71.81 287.60
  L 71.86 307.28
  A 1.07 1.07 0.0 0 1 70.53 308.32
  Q 55.61 304.50 51.52 290.99
  C 48.62 281.43 51.62 271.42 59.35 264.90
  C 60.52 263.91 61.10 262.12 60.49 260.70
  Q 58.22 255.41 61.52 247.51
  Q 62.38 245.45 60.46 243.32
  Q 63.29 239.44 67.90 237.78
  Z"
/>
<path fill="#ff7f00" d="
  M 200.06 342.25
  Q 199.12 337.76 197.89 333.37
  Q 197.01 330.23 196.14 326.56
  Q 195.14 322.31 193.31 318.49
  Q 190.23 312.06 187.05 305.37
  Q 185.37 301.84 182.88 299.07
  Q 178.88 294.62 175.01 289.95
  Q 170.26 284.22 168.37 277.64
  Q 168.08 276.64 167.36 275.21
  Q 167.12 274.74 166.60 274.70
  Q 165.82 274.63 165.26 274.16
  L 173.47 260.23
  A 1.23 1.23 0.0 0 1 174.73 259.65
  L 182.84 261.10
  A 2.44 2.44 0.0 0 1 184.72 262.70
  Q 188.97 274.89 193.70 287.06
  C 194.14 288.20 194.78 289.23 195.63 290.12
  Q 200.64 295.42 205.41 300.68
  Q 207.82 303.33 210.04 307.86
  Q 214.97 317.94 216.85 323.64
  Q 218.81 329.55 221.65 341.80
  Q 221.78 342.34 221.23 342.34
  L 200.06 342.25
  Z"
/>
<path fill="#fc7d38" d="
  M 165.26 274.16
  Q 165.82 274.63 166.60 274.70
  Q 167.12 274.74 167.36 275.21
  Q 168.08 276.64 168.37 277.64
  Q 170.26 284.22 175.01 289.95
  Q 178.88 294.62 182.88 299.07
  Q 185.37 301.84 187.05 305.37
  Q 190.23 312.06 193.31 318.49
  Q 195.14 322.31 196.14 326.56
  Q 197.01 330.23 197.89 333.37
  Q 199.12 337.76 200.06 342.25
  L 153.02 342.30
  A 2.11 2.10 74.2 0 1 151.20 341.28
  L 143.71 328.88
  A 3.75 3.71 -56.6 0 1 143.21 326.39
  L 145.54 310.69
  A 3.02 3.01 79.9 0 1 147.07 308.49
  L 154.66 304.34
  A 3.85 3.85 0.0 0 0 156.67 300.91
  L 156.56 290.29
  A 4.62 4.60 60.2 0 1 157.20 287.91
  L 165.26 274.16
  Z"
/>
<path fill="#fcc942" d="
  M 61.85 333.70
  Q 62.87 330.81 60.54 329.30
  C 58.30 327.85 55.74 326.92 54.22 324.58
  C 53.07 322.81 50.99 320.01 51.57 317.85
  Q 52.79 313.34 54.62 308.38
  A 0.30 0.30 0.0 0 1 55.10 308.25
  C 59.65 312.19 65.04 314.28 71.15 315.25
  A 0.76 0.75 4.5 0 1 71.79 315.99
  L 71.79 341.78
  A 0.57 0.56 -0.0 0 1 71.22 342.34
  L 41.57 342.36
  A 0.41 0.40 0.7 0 1 41.16 341.95
  L 41.26 330.81
  Q 41.26 329.94 41.89 329.34
  L 45.83 325.55
  Q 46.34 325.06 46.74 325.65
  C 48.17 327.75 49.04 330.43 51.27 331.81
  Q 54.22 333.64 57.01 335.03
  Q 59.54 336.29 61.51 334.25
  Q 61.74 334.02 61.85 333.70
  Z"
/>
<path fill="#fcc942" d="
  M 115.08 333.93
  A 3.12 3.10 -10.9 0 0 116.43 331.95
  L 117.48 326.81
  Q 117.61 326.16 118.23 325.93
  L 123.67 323.88
  Q 124.29 323.65 124.66 324.19
  C 125.67 325.67 127.15 328.47 128.89 329.00
  Q 132.49 330.11 135.86 331.15
  A 3.89 3.86 -6.7 0 1 138.04 332.86
  L 143.42 341.83
  A 0.33 0.33 0.0 0 1 143.14 342.33
  L 105.58 342.28
  A 0.38 0.37 -77.8 0 1 105.24 341.75
  C 106.40 339.14 107.16 337.41 110.18 336.32
  Q 112.91 335.33 115.08 333.93
  Z"
/>
</svg>
