<?xml version="1.0" encoding="UTF-8" standalone="no"?>
<!DOCTYPE svg PUBLIC "-//W3C//DTD SVG 1.1//EN" "http://www.w3.org/Graphics/SVG/1.1/DTD/svg11.dtd">
<svg xmlns="http://www.w3.org/2000/svg" version="1.1" viewBox="0.00 0.00 500.00 500.00">
<g stroke-width="2.00" fill="none" stroke-linecap="butt">
<path stroke="#fb8838" vector-effect="non-scaling-stroke" d="
  M 369.55 230.93
  Q 363.60 231.32 362.23 226.50
  Q 359.63 217.38 356.64 207.59
  A 2.47 2.43 -87.5 0 0 355.25 206.05
  Q 337.48 198.65 319.64 191.02
  C 316.06 189.49 310.56 188.09 309.04 184.37
  Q 294.31 148.19 279.49 111.84
  A 1.21 1.19 -10.7 0 0 278.37 111.09
  L 246.78 111.08"
/>
<path stroke="#fb8337" vector-effect="non-scaling-stroke" d="
  M 246.78 111.08
  L 226.04 111.27
  A 0.78 0.76 9.4 0 0 225.33 111.77
  Q 217.96 131.46 211.30 148.27
  Q 210.54 150.18 208.90 151.14
  Q 199.96 156.39 191.26 161.26
  Q 186.86 163.72 183.33 158.94"
/>
<path stroke="#fb8838" vector-effect="non-scaling-stroke" d="
  M 374.15 245.82
  Q 370.68 247.26 370.11 250.36
  Q 369.79 252.08 370.33 253.86
  Q 374.98 269.21 380.02 285.58
  Q 380.93 288.53 382.84 290.66
  Q 397.94 307.55 413.19 324.32
  Q 416.03 327.44 417.43 331.83
  Q 426.48 360.31 435.57 388.44
  Q 435.91 389.49 434.80 389.49
  L 387.70 389.49
  Q 387.11 389.49 386.96 388.92
  Q 382.77 372.72 378.52 356.53
  Q 376.82 350.06 374.56 345.29
  Q 368.24 331.92 362.11 318.87
  Q 360.48 315.39 358.15 312.81
  Q 348.80 302.50 338.10 290.80
  Q 336.54 289.10 335.81 287.07
  Q 328.53 267.05 319.72 242.51
  Q 318.36 238.72 314.16 237.94
  Q 300.76 235.46 290.07 233.55
  Q 285.61 232.75 283.32 236.62
  Q 268.93 260.94 254.18 285.88
  A 0.68 0.68 0.0 0 1 253.18 286.07
  L 249.35 283.10
  Q 248.46 282.42 248.62 281.31
  Q 249.51 275.30 250.29 268.97
  C 250.78 264.98 248.47 261.51 244.17 261.83
  C 239.64 262.17 238.62 265.44 238.18 269.20
  Q 237.56 274.52 236.87 279.57
  A 0.68 0.67 88.9 0 1 236.33 280.14
  Q 230.90 281.15 225.33 282.15
  C 221.93 282.76 219.14 285.20 219.72 288.84
  C 220.58 294.28 225.28 294.57 229.76 293.55
  Q 234.72 292.41 239.43 291.47
  A 2.35 2.33 -31.9 0 1 241.31 291.90
  L 248.63 297.47
  A 2.69 2.67 -71.4 0 1 249.69 299.63
  L 249.60 313.95
  A 1.34 1.34 0.0 0 1 248.92 315.10
  Q 241.88 318.99 234.73 323.03
  Q 231.93 324.62 231.46 327.73
  Q 229.09 343.55 227.04 357.07
  Q 226.91 357.87 226.13 357.65
  L 219.65 355.82
  Q 218.78 355.58 218.34 354.78
  Q 216.03 350.60 213.22 346.67
  Q 210.33 342.61 206.50 344.00
  Q 197.31 347.32 187.94 350.61
  C 185.15 351.60 183.26 352.87 182.71 355.76
  Q 181.84 360.31 181.01 364.96
  A 2.30 2.29 83.8 0 1 179.63 366.68
  Q 174.92 368.66 170.31 370.67
  Q 167.55 371.87 166.26 374.48
  Q 163.05 380.97 159.08 388.95
  A 0.95 0.95 0.0 0 1 158.23 389.48
  L 126.75 389.52
  A 0.27 0.27 0.0 0 1 126.48 389.25
  L 126.50 343.30
  A 0.76 0.76 0.0 0 1 127.18 342.54
  Q 138.65 341.26 148.38 335.39
  C 179.15 316.79 185.05 275.21 159.20 249.19
  A 1.30 1.29 -64.3 0 1 158.83 248.13
  L 159.74 240.44
  A 0.77 0.76 -86.3 0 1 160.51 239.76
  Q 164.29 239.77 168.08 239.69
  C 171.28 239.63 175.48 242.94 178.16 244.59
  A 2.40 2.39 -78.8 0 1 179.25 246.22
  Q 181.21 257.86 183.51 270.12
  C 185.04 278.34 196.63 275.81 195.10 267.63
  Q 192.46 253.53 190.58 241.45
  Q 190.11 238.42 187.73 236.75
  Q 180.42 231.58 172.45 227.71"
/>
<path stroke="#fbc541" vector-effect="non-scaling-stroke" d="
  M 246.78 111.08
  Q 246.02 111.93 244.83 112.42
  Q 244.28 112.65 244.59 113.16
  Q 244.67 113.29 244.66 113.45
  Q 244.66 114.00 244.26 114.35
  Q 243.33 115.19 242.80 116.40
  Q 239.83 123.16 237.50 130.23
  Q 234.00 140.84 226.84 158.20
  Q 226.07 160.05 224.65 161.09
  Q 221.69 163.25 218.19 165.09
  Q 210.40 169.19 203.78 173.32
  C 195.86 178.27 187.54 182.24 179.84 187.07
  C 176.69 189.04 175.48 190.91 175.23 194.87
  Q 174.22 211.51 172.45 227.71"
/>
<path stroke="#fb8337" vector-effect="non-scaling-stroke" d="
  M 172.45 227.71
  L 159.22 227.95
  A 1.23 1.22 77.5 0 1 158.09 227.22
  L 154.12 218.33
  A 4.30 4.18 -55.7 0 1 153.77 216.33
  L 156.32 181.97
  A 1.54 1.54 0.0 0 1 157.13 180.72
  C 160.26 179.04 165.01 176.70 166.98 175.09
  Q 170.52 172.18 168.41 167.37"
/>
<path stroke="#fb8337" vector-effect="non-scaling-stroke" d="
  M 94.93 218.04
  Q 96.84 219.78 97.26 222.04
  C 97.79 224.90 95.39 228.65 94.51 231.40
  C 92.76 236.83 93.25 243.21 95.11 248.78
  C 95.86 251.00 95.20 253.28 93.44 254.81
  C 82.18 264.58 76.51 277.67 77.95 292.72
  Q 78.85 302.16 83.86 310.38
  Q 93.68 326.47 113.08 330.54
  Q 114.63 330.86 114.63 329.27
  L 114.66 293.55
  A 2.45 2.43 -70.3 0 0 113.78 291.67
  Q 108.73 287.48 102.86 282.63
  C 100.06 280.31 98.50 277.36 100.74 273.87
  Q 102.80 270.67 106.52 271.31
  C 109.33 271.80 111.72 274.68 113.90 276.43
  A 0.36 0.36 0.0 0 0 114.48 276.18
  C 114.82 271.74 112.82 262.14 120.06 261.86
  Q 126.48 261.61 126.49 268.69
  Q 126.49 284.35 126.50 301.48
  A 0.42 0.42 0.0 0 0 127.20 301.79
  C 130.40 298.81 134.33 294.28 138.98 297.48
  C 143.13 300.35 141.67 305.22 138.35 307.93
  Q 132.75 312.49 127.07 317.26
  A 1.67 1.66 -20.2 0 0 126.48 318.53
  L 126.50 329.76
  Q 126.50 330.75 127.48 330.57
  Q 143.32 327.64 153.21 316.05
  C 168.50 298.13 166.79 270.82 148.47 255.54
  C 143.45 251.35 147.18 246.90 147.57 241.99
  Q 148.83 226.03 136.63 217.01
  Q 128.21 210.77 118.01 211.78
  C 115.60 212.02 113.04 212.69 110.91 211.06
  Q 109.24 209.78 108.77 207.85"
/>
<path stroke="#fc6233" vector-effect="non-scaling-stroke" d="
  M 277.37 269.93
  L 262.12 295.92
  A 4.17 4.16 60.4 0 0 261.54 298.04
  Q 261.49 307.48 261.56 318.01
  C 261.58 320.36 260.41 322.25 258.40 323.43
  Q 251.28 327.60 244.24 331.28
  A 2.94 2.91 80.8 0 0 242.71 333.42
  L 238.15 362.17
  A 4.68 4.64 34.2 0 0 238.77 365.35
  L 252.90 388.77
  A 1.51 1.51 0.0 0 0 254.20 389.51
  L 336.57 389.50"
/>
<path stroke="#fb6733" vector-effect="non-scaling-stroke" d="
  M 336.57 389.50
  L 373.81 389.48
  A 0.86 0.86 0.0 0 0 374.64 388.40
  Q 370.63 373.33 366.71 357.89
  Q 366.02 355.15 364.81 352.56
  Q 358.45 338.85 352.46 325.90
  Q 350.71 322.13 348.49 319.72
  Q 339.01 309.44 330.21 299.82
  C 327.44 296.80 325.93 294.15 324.62 290.54
  Q 317.54 271.14 310.18 251.03
  A 3.55 3.55 0.0 0 0 307.35 248.74
  Q 300.04 247.70 292.63 245.94
  A 1.25 1.24 -67.7 0 0 291.28 246.51
  L 277.37 269.93"
/>
<path stroke="#fc8338" vector-effect="non-scaling-stroke" d="
  M 336.57 389.50
  Q 332.84 373.63 328.79 358.26
  Q 327.68 354.03 326.67 351.76
  Q 324.43 346.67 316.44 329.49
  C 314.93 326.25 313.48 321.06 311.27 318.62
  Q 303.42 310.01 295.75 301.54
  Q 292.51 297.96 288.91 293.58
  Q 286.92 291.16 286.07 288.71
  Q 283.73 281.97 280.69 275.38
  C 280.13 274.16 279.92 272.94 279.54 271.68
  A 1.25 1.23 8.4 0 0 279.02 270.99
  L 277.37 269.93"
/>
<path stroke="#fb8838" vector-effect="non-scaling-stroke" d="
  M 94.54 366.32
  C 102.30 370.89 96.21 380.75 88.83 376.67
  Q 83.69 373.83 79.02 371.12
  C 75.48 369.06 73.17 363.52 71.43 360.00
  A 0.59 0.59 0.0 0 0 70.49 359.83
  L 62.28 367.67
  A 1.67 1.65 68.6 0 0 61.76 368.88
  L 61.77 389.25
  A 0.23 0.22 -0.0 0 0 62.00 389.47
  L 113.79 389.50
  A 0.80 0.79 -0.0 0 0 114.59 388.71
  L 114.62 343.34
  A 0.87 0.86 -87.1 0 0 113.85 342.48
  Q 98.38 340.77 85.74 330.47
  A 0.51 0.51 0.0 0 0 84.94 330.71
  L 79.30 347.79
  A 3.13 3.10 -50.5 0 0 79.53 350.28
  L 85.04 360.16
  A 4.37 4.31 89.8 0 0 86.71 361.84
  Q 90.75 364.09 94.54 366.32"
/>
<path stroke="#fc7b36" vector-effect="non-scaling-stroke" d="
  M 186.85 376.43
  Q 181.85 378.54 177.52 380.62
  A 4.71 4.68 -89.7 0 0 175.38 382.75
  L 172.44 388.69
  Q 172.04 389.49 172.94 389.49
  L 238.51 389.51
  A 0.51 0.51 0.0 0 0 238.95 388.73
  L 228.74 371.74
  A 3.77 3.77 0.0 0 0 226.46 370.03
  Q 220.40 368.44 214.08 366.63
  C 210.47 365.60 208.45 361.13 206.55 358.12
  Q 205.76 356.86 204.36 357.37
  L 194.72 360.92
  A 1.96 1.95 85.4 0 0 193.48 362.38
  Q 192.72 366.24 192.11 370.48
  C 191.63 373.80 189.76 375.20 186.85 376.43"
/>
</g>
<path fill="#fb462e" d="
  M 369.55 230.93
  Q 363.60 231.32 362.23 226.50
  Q 359.63 217.38 356.64 207.59
  A 2.47 2.43 -87.5 0 0 355.25 206.05
  Q 337.48 198.65 319.64 191.02
  C 316.06 189.49 310.56 188.09 309.04 184.37
  Q 294.31 148.19 279.49 111.84
  A 1.21 1.19 -10.7 0 0 278.37 111.09
  L 246.78 111.08
  L 226.04 111.27
  A 0.78 0.76 9.4 0 0 225.33 111.77
  Q 217.96 131.46 211.30 148.27
  Q 210.54 150.18 208.90 151.14
  Q 199.96 156.39 191.26 161.26
  Q 186.86 163.72 183.33 158.94
  Q 182.93 157.62 182.93 156.00
  C 182.94 153.78 183.94 152.01 185.90 150.88
  Q 193.31 146.62 200.19 142.78
  A 3.43 3.43 0.0 0 0 201.71 141.01
  Q 208.78 122.29 216.17 103.24
  C 217.13 100.77 219.08 99.40 221.84 99.40
  Q 252.81 99.36 283.66 99.48
  A 5.12 5.11 -10.9 0 1 288.39 102.67
  L 318.68 177.03
  A 2.91 2.90 -89.5 0 0 320.23 178.61
  Q 342.18 187.87 363.76 197.03
  C 365.24 197.66 366.61 199.54 367.06 201.15
  Q 370.09 212.12 373.34 222.40
  C 374.29 225.38 373.53 228.19 370.90 229.81
  Q 370.03 230.34 369.55 230.93
  Z"
/>
<path fill="#fbc040" d="
  M 246.78 111.08
  Q 246.02 111.93 244.83 112.42
  Q 244.28 112.65 244.59 113.16
  Q 244.67 113.29 244.66 113.45
  Q 244.66 114.00 244.26 114.35
  Q 243.33 115.19 242.80 116.40
  Q 239.83 123.16 237.50 130.23
  Q 234.00 140.84 226.84 158.20
  Q 226.07 160.05 224.65 161.09
  Q 221.69 163.25 218.19 165.09
  Q 210.40 169.19 203.78 173.32
  C 195.86 178.27 187.54 182.24 179.84 187.07
  C 176.69 189.04 175.48 190.91 175.23 194.87
  Q 174.22 211.51 172.45 227.71
  L 159.22 227.95
  A 1.23 1.22 77.5 0 1 158.09 227.22
  L 154.12 218.33
  A 4.30 4.18 -55.7 0 1 153.77 216.33
  L 156.32 181.97
  A 1.54 1.54 0.0 0 1 157.13 180.72
  C 160.26 179.04 165.01 176.70 166.98 175.09
  Q 170.52 172.18 168.41 167.37
  L 183.33 158.94
  Q 186.86 163.72 191.26 161.26
  Q 199.96 156.39 208.90 151.14
  Q 210.54 150.18 211.30 148.27
  Q 217.96 131.46 225.33 111.77
  A 0.78 0.76 9.4 0 1 226.04 111.27
  L 246.78 111.08
  Z"
/>
<path fill="#fbc942" d="
  M 246.78 111.08
  L 278.37 111.09
  A 1.21 1.19 -10.7 0 1 279.49 111.84
  Q 294.31 148.19 309.04 184.37
  C 310.56 188.09 316.06 189.49 319.64 191.02
  Q 337.48 198.65 355.25 206.05
  A 2.47 2.43 -87.5 0 1 356.64 207.59
  Q 359.63 217.38 362.23 226.50
  Q 363.60 231.32 369.55 230.93
  L 374.15 245.82
  Q 370.68 247.26 370.11 250.36
  Q 369.79 252.08 370.33 253.86
  Q 374.98 269.21 380.02 285.58
  Q 380.93 288.53 382.84 290.66
  Q 397.94 307.55 413.19 324.32
  Q 416.03 327.44 417.43 331.83
  Q 426.48 360.31 435.57 388.44
  Q 435.91 389.49 434.80 389.49
  L 387.70 389.49
  Q 387.11 389.49 386.96 388.92
  Q 382.77 372.72 378.52 356.53
  Q 376.82 350.06 374.56 345.29
  Q 368.24 331.92 362.11 318.87
  Q 360.48 315.39 358.15 312.81
  Q 348.80 302.50 338.10 290.80
  Q 336.54 289.10 335.81 287.07
  Q 328.53 267.05 319.72 242.51
  Q 318.36 238.72 314.16 237.94
  Q 300.76 235.46 290.07 233.55
  Q 285.61 232.75 283.32 236.62
  Q 268.93 260.94 254.18 285.88
  A 0.68 0.68 0.0 0 1 253.18 286.07
  L 249.35 283.10
  Q 248.46 282.42 248.62 281.31
  Q 249.51 275.30 250.29 268.97
  C 250.78 264.98 248.47 261.51 244.17 261.83
  C 239.64 262.17 238.62 265.44 238.18 269.20
  Q 237.56 274.52 236.87 279.57
  A 0.68 0.67 88.9 0 1 236.33 280.14
  Q 230.90 281.15 225.33 282.15
  C 221.93 282.76 219.14 285.20 219.72 288.84
  C 220.58 294.28 225.28 294.57 229.76 293.55
  Q 234.72 292.41 239.43 291.47
  A 2.35 2.33 -31.9 0 1 241.31 291.90
  L 248.63 297.47
  A 2.69 2.67 -71.4 0 1 249.69 299.63
  L 249.60 313.95
  A 1.34 1.34 0.0 0 1 248.92 315.10
  Q 241.88 318.99 234.73 323.03
  Q 231.93 324.62 231.46 327.73
  Q 229.09 343.55 227.04 357.07
  Q 226.91 357.87 226.13 357.65
  L 219.65 355.82
  Q 218.78 355.58 218.34 354.78
  Q 216.03 350.60 213.22 346.67
  Q 210.33 342.61 206.50 344.00
  Q 197.31 347.32 187.94 350.61
  C 185.15 351.60 183.26 352.87 182.71 355.76
  Q 181.84 360.31 181.01 364.96
  A 2.30 2.29 83.8 0 1 179.63 366.68
  Q 174.92 368.66 170.31 370.67
  Q 167.55 371.87 166.26 374.48
  Q 163.05 380.97 159.08 388.95
  A 0.95 0.95 0.0 0 1 158.23 389.48
  L 126.75 389.52
  A 0.27 0.27 0.0 0 1 126.48 389.25
  L 126.50 343.30
  A 0.76 0.76 0.0 0 1 127.18 342.54
  Q 138.65 341.26 148.38 335.39
  C 179.15 316.79 185.05 275.21 159.20 249.19
  A 1.30 1.29 -64.3 0 1 158.83 248.13
  L 159.74 240.44
  A 0.77 0.76 -86.3 0 1 160.51 239.76
  Q 164.29 239.77 168.08 239.69
  C 171.28 239.63 175.48 242.94 178.16 244.59
  A 2.40 2.39 -78.8 0 1 179.25 246.22
  Q 181.21 257.86 183.51 270.12
  C 185.04 278.34 196.63 275.81 195.10 267.63
  Q 192.46 253.53 190.58 241.45
  Q 190.11 238.42 187.73 236.75
  Q 180.42 231.58 172.45 227.71
  Q 174.22 211.51 175.23 194.87
  C 175.48 190.91 176.69 189.04 179.84 187.07
  C 187.54 182.24 195.86 178.27 203.78 173.32
  Q 210.40 169.19 218.19 165.09
  Q 221.69 163.25 224.65 161.09
  Q 226.07 160.05 226.84 158.20
  Q 234.00 140.84 237.50 130.23
  Q 239.83 123.16 242.80 116.40
  Q 243.33 115.19 244.26 114.35
  Q 244.66 114.00 244.66 113.45
  Q 244.67 113.29 244.59 113.16
  Q 244.28 112.65 244.83 112.42
  Q 246.02 111.93 246.78 111.08
  Z"
/>
<path fill="#fb462e" d="
  M 168.41 167.37
  Q 170.52 172.18 166.98 175.09
  C 165.01 176.70 160.26 179.04 157.13 180.72
  A 1.54 1.54 0.0 0 0 156.32 181.97
  L 153.77 216.33
  A 4.30 4.18 -55.7 0 0 154.12 218.33
  L 158.09 227.22
  A 1.23 1.22 77.5 0 0 159.22 227.95
  L 172.45 227.71
  Q 180.42 231.58 187.73 236.75
  Q 190.11 238.42 190.58 241.45
  Q 192.46 253.53 195.10 267.63
  C 196.63 275.81 185.04 278.34 183.51 270.12
  Q 181.21 257.86 179.25 246.22
  A 2.40 2.39 -78.8 0 0 178.16 244.59
  C 175.48 242.94 171.28 239.63 168.08 239.69
  Q 164.29 239.77 160.51 239.76
  A 0.77 0.76 -86.3 0 0 159.74 240.44
  L 158.83 248.13
  A 1.30 1.29 -64.3 0 0 159.20 249.19
  C 185.05 275.21 179.15 316.79 148.38 335.39
  Q 138.65 341.26 127.18 342.54
  A 0.76 0.76 0.0 0 0 126.50 343.30
  L 126.48 389.25
  A 0.27 0.27 0.0 0 0 126.75 389.52
  L 158.23 389.48
  A 0.95 0.95 0.0 0 0 159.08 388.95
  Q 163.05 380.97 166.26 374.48
  Q 167.55 371.87 170.31 370.67
  Q 174.92 368.66 179.63 366.68
  A 2.30 2.29 83.8 0 0 181.01 364.96
  Q 181.84 360.31 182.71 355.76
  C 183.26 352.87 185.15 351.60 187.94 350.61
  Q 197.31 347.32 206.50 344.00
  Q 210.33 342.61 213.22 346.67
  Q 216.03 350.60 218.34 354.78
  Q 218.78 355.58 219.65 355.82
  L 226.13 357.65
  Q 226.91 357.87 227.04 357.07
  Q 229.09 343.55 231.46 327.73
  Q 231.93 324.62 234.73 323.03
  Q 241.88 318.99 248.92 315.10
  A 1.34 1.34 0.0 0 0 249.60 313.95
  L 249.69 299.63
  A 2.69 2.67 -71.4 0 0 248.63 297.47
  L 241.31 291.90
  A 2.35 2.33 -31.9 0 0 239.43 291.47
  Q 234.72 292.41 229.76 293.55
  C 225.28 294.57 220.58 294.28 219.72 288.84
  C 219.14 285.20 221.93 282.76 225.33 282.15
  Q 230.90 281.15 236.33 280.14
  A 0.68 0.67 88.9 0 0 236.87 279.57
  Q 237.56 274.52 238.18 269.20
  C 238.62 265.44 239.64 262.17 244.17 261.83
  C 248.47 261.51 250.78 264.98 250.29 268.97
  Q 249.51 275.30 248.62 281.31
  Q 248.46 282.42 249.35 283.10
  L 253.18 286.07
  A 0.68 0.68 0.0 0 0 254.18 285.88
  Q 268.93 260.94 283.32 236.62
  Q 285.61 232.75 290.07 233.55
  Q 300.76 235.46 314.16 237.94
  Q 318.36 238.72 319.72 242.51
  Q 328.53 267.05 335.81 287.07
  Q 336.54 289.10 338.10 290.80
  Q 348.80 302.50 358.15 312.81
  Q 360.48 315.39 362.11 318.87
  Q 368.24 331.92 374.56 345.29
  Q 376.82 350.06 378.52 356.53
  Q 382.77 372.72 386.96 388.92
  Q 387.11 389.49 387.70 389.49
  L 434.80 389.49
  Q 435.91 389.49 435.57 388.44
  Q 426.48 360.31 417.43 331.83
  Q 416.03 327.44 413.19 324.32
  Q 397.94 307.55 382.84 290.66
  Q 380.93 288.53 380.02 285.58
  Q 374.98 269.21 370.33 253.86
  Q 369.79 252.08 370.11 250.36
  Q 370.68 247.26 374.15 245.82
  C 377.51 245.41 380.40 246.86 381.36 250.07
  Q 385.98 265.58 390.18 280.12
  C 390.81 282.31 392.23 283.86 393.76 285.55
  Q 408.87 302.18 423.96 318.86
  Q 425.62 320.70 426.28 322.69
  Q 437.59 356.90 449.46 393.68
  C 450.66 397.41 448.07 401.06 444.00 401.06
  Q 250.24 401.10 56.50 400.97
  C 52.33 400.96 49.96 398.36 50.00 394.44
  Q 50.12 379.33 49.96 366.17
  C 49.93 363.58 51.86 361.29 53.69 359.64
  Q 59.88 354.04 66.33 347.72
  Q 67.52 346.55 68.03 345.03
  Q 72.13 332.73 75.96 320.42
  A 1.30 1.30 0.0 0 0 75.81 319.31
  C 70.57 311.21 67.13 302.82 66.31 293.06
  Q 64.17 267.71 82.40 249.10
  Q 83.02 248.47 82.81 247.61
  Q 79.58 234.26 86.11 220.92
  Q 87.17 218.76 89.11 217.91
  Q 91.60 216.82 94.93 218.04
  Q 96.84 219.78 97.26 222.04
  C 97.79 224.90 95.39 228.65 94.51 231.40
  C 92.76 236.83 93.25 243.21 95.11 248.78
  C 95.86 251.00 95.20 253.28 93.44 254.81
  C 82.18 264.58 76.51 277.67 77.95 292.72
  Q 78.85 302.16 83.86 310.38
  Q 93.68 326.47 113.08 330.54
  Q 114.63 330.86 114.63 329.27
  L 114.66 293.55
  A 2.45 2.43 -70.3 0 0 113.78 291.67
  Q 108.73 287.48 102.86 282.63
  C 100.06 280.31 98.50 277.36 100.74 273.87
  Q 102.80 270.67 106.52 271.31
  C 109.33 271.80 111.72 274.68 113.90 276.43
  A 0.36 0.36 0.0 0 0 114.48 276.18
  C 114.82 271.74 112.82 262.14 120.06 261.86
  Q 126.48 261.61 126.49 268.69
  Q 126.49 284.35 126.50 301.48
  A 0.42 0.42 0.0 0 0 127.20 301.79
  C 130.40 298.81 134.33 294.28 138.98 297.48
  C 143.13 300.35 141.67 305.22 138.35 307.93
  Q 132.75 312.49 127.07 317.26
  A 1.67 1.66 -20.2 0 0 126.48 318.53
  L 126.50 329.76
  Q 126.50 330.75 127.48 330.57
  Q 143.32 327.64 153.21 316.05
  C 168.50 298.13 166.79 270.82 148.47 255.54
  C 143.45 251.35 147.18 246.90 147.57 241.99
  Q 148.83 226.03 136.63 217.01
  Q 128.21 210.77 118.01 211.78
  C 115.60 212.02 113.04 212.69 110.91 211.06
  Q 109.24 209.78 108.77 207.85
  C 108.13 202.56 111.83 200.47 116.34 200.10
  Q 130.35 198.94 141.82 206.39
  A 0.71 0.71 0.0 0 0 142.92 205.84
  Q 143.85 190.21 144.88 177.14
  C 145.04 175.01 146.51 173.24 148.44 172.19
  Q 153.88 169.22 159.61 165.91
  Q 164.71 162.96 168.41 167.37
  Z
  M 277.37 269.93
  L 262.12 295.92
  A 4.17 4.16 60.4 0 0 261.54 298.04
  Q 261.49 307.48 261.56 318.01
  C 261.58 320.36 260.41 322.25 258.40 323.43
  Q 251.28 327.60 244.24 331.28
  A 2.94 2.91 80.8 0 0 242.71 333.42
  L 238.15 362.17
  A 4.68 4.64 34.2 0 0 238.77 365.35
  L 252.90 388.77
  A 1.51 1.51 0.0 0 0 254.20 389.51
  L 336.57 389.50
  L 373.81 389.48
  A 0.86 0.86 0.0 0 0 374.64 388.40
  Q 370.63 373.33 366.71 357.89
  Q 366.02 355.15 364.81 352.56
  Q 358.45 338.85 352.46 325.90
  Q 350.71 322.13 348.49 319.72
  Q 339.01 309.44 330.21 299.82
  C 327.44 296.80 325.93 294.15 324.62 290.54
  Q 317.54 271.14 310.18 251.03
  A 3.55 3.55 0.0 0 0 307.35 248.74
  Q 300.04 247.70 292.63 245.94
  A 1.25 1.24 -67.7 0 0 291.28 246.51
  L 277.37 269.93
  Z
  M 94.54 366.32
  C 102.30 370.89 96.21 380.75 88.83 376.67
  Q 83.69 373.83 79.02 371.12
  C 75.48 369.06 73.17 363.52 71.43 360.00
  A 0.59 0.59 0.0 0 0 70.49 359.83
  L 62.28 367.67
  A 1.67 1.65 68.6 0 0 61.76 368.88
  L 61.77 389.25
  A 0.23 0.22 -0.0 0 0 62.00 389.47
  L 113.79 389.50
  A 0.80 0.79 -0.0 0 0 114.59 388.71
  L 114.62 343.34
  A 0.87 0.86 -87.1 0 0 113.85 342.48
  Q 98.38 340.77 85.74 330.47
  A 0.51 0.51 0.0 0 0 84.94 330.71
  L 79.30 347.79
  A 3.13 3.10 -50.5 0 0 79.53 350.28
  L 85.04 360.16
  A 4.37 4.31 89.8 0 0 86.71 361.84
  Q 90.75 364.09 94.54 366.32
  Z
  M 186.85 376.43
  Q 181.85 378.54 177.52 380.62
  A 4.71 4.68 -89.7 0 0 175.38 382.75
  L 172.44 388.69
  Q 172.04 389.49 172.94 389.49
  L 238.51 389.51
  A 0.51 0.51 0.0 0 0 238.95 388.73
  L 228.74 371.74
  A 3.77 3.77 0.0 0 0 226.46 370.03
  Q 220.40 368.44 214.08 366.63
  C 210.47 365.60 208.45 361.13 206.55 358.12
  Q 205.76 356.86 204.36 357.37
  L 194.72 360.92
  A 1.96 1.95 85.4 0 0 193.48 362.38
  Q 192.72 366.24 192.11 370.48
  C 191.63 373.80 189.76 375.20 186.85 376.43
  Z"
/>
<path fill="#fbc040" d="
  M 108.77 207.85
  Q 109.24 209.78 110.91 211.06
  C 113.04 212.69 115.60 212.02 118.01 211.78
  Q 128.21 210.77 136.63 217.01
  Q 148.83 226.03 147.57 241.99
  C 147.18 246.90 143.45 251.35 148.47 255.54
  C 166.79 270.82 168.50 298.13 153.21 316.05
  Q 143.32 327.64 127.48 330.57
  Q 126.50 330.75 126.50 329.76
  L 126.48 318.53
  A 1.67 1.66 -20.2 0 1 127.07 317.26
  Q 132.75 312.49 138.35 307.93
  C 141.67 305.22 143.13 300.35 138.98 297.48
  C 134.33 294.28 130.40 298.81 127.20 301.79
  A 0.42 0.42 0.0 0 1 126.50 301.48
  Q 126.49 284.35 126.49 268.69
  Q 126.48 261.61 120.06 261.86
  C 112.82 262.14 114.82 271.74 114.48 276.18
  A 0.36 0.36 0.0 0 1 113.90 276.43
  C 111.72 274.68 109.33 271.80 106.52 271.31
  Q 102.80 270.67 100.74 273.87
  C 98.50 277.36 100.06 280.31 102.86 282.63
  Q 108.73 287.48 113.78 291.67
  A 2.45 2.43 -70.3 0 1 114.66 293.55
  L 114.63 329.27
  Q 114.63 330.86 113.08 330.54
  Q 93.68 326.47 83.86 310.38
  Q 78.85 302.16 77.95 292.72
  C 76.51 277.67 82.18 264.58 93.44 254.81
  C 95.20 253.28 95.86 251.00 95.11 248.78
  C 93.25 243.21 92.76 236.83 94.51 231.40
  C 95.39 228.65 97.79 224.90 97.26 222.04
  Q 96.84 219.78 94.93 218.04
  Q 100.79 211.23 108.77 207.85
  Z"
/>
<path fill="#fb8838" d="
  M 336.57 389.50
  Q 332.84 373.63 328.79 358.26
  Q 327.68 354.03 326.67 351.76
  Q 324.43 346.67 316.44 329.49
  C 314.93 326.25 313.48 321.06 311.27 318.62
  Q 303.42 310.01 295.75 301.54
  Q 292.51 297.96 288.91 293.58
  Q 286.92 291.16 286.07 288.71
  Q 283.73 281.97 280.69 275.38
  C 280.13 274.16 279.92 272.94 279.54 271.68
  A 1.25 1.23 8.4 0 0 279.02 270.99
  L 277.37 269.93
  L 291.28 246.51
  A 1.25 1.24 -67.7 0 1 292.63 245.94
  Q 300.04 247.70 307.35 248.74
  A 3.55 3.55 0.0 0 1 310.18 251.03
  Q 317.54 271.14 324.62 290.54
  C 325.93 294.15 327.44 296.80 330.21 299.82
  Q 339.01 309.44 348.49 319.72
  Q 350.71 322.13 352.46 325.90
  Q 358.45 338.85 364.81 352.56
  Q 366.02 355.15 366.71 357.89
  Q 370.63 373.33 374.64 388.40
  A 0.86 0.86 0.0 0 1 373.81 389.48
  L 336.57 389.50
  Z"
/>
<path fill="#fc7d38" d="
  M 277.37 269.93
  L 279.02 270.99
  A 1.25 1.23 8.4 0 1 279.54 271.68
  C 279.92 272.94 280.13 274.16 280.69 275.38
  Q 283.73 281.97 286.07 288.71
  Q 286.92 291.16 288.91 293.58
  Q 292.51 297.96 295.75 301.54
  Q 303.42 310.01 311.27 318.62
  C 313.48 321.06 314.93 326.25 316.44 329.49
  Q 324.43 346.67 326.67 351.76
  Q 327.68 354.03 328.79 358.26
  Q 332.84 373.63 336.57 389.50
  L 254.20 389.51
  A 1.51 1.51 0.0 0 1 252.90 388.77
  L 238.77 365.35
  A 4.68 4.64 34.2 0 1 238.15 362.17
  L 242.71 333.42
  A 2.94 2.91 80.8 0 1 244.24 331.28
  Q 251.28 327.60 258.40 323.43
  C 260.41 322.25 261.58 320.36 261.56 318.01
  Q 261.49 307.48 261.54 298.04
  A 4.17 4.16 60.4 0 1 262.12 295.92
  L 277.37 269.93
  Z"
/>
<path fill="#fbc942" d="
  M 88.83 376.67
  C 96.21 380.75 102.30 370.89 94.54 366.32
  Q 90.75 364.09 86.71 361.84
  A 4.37 4.31 89.8 0 1 85.04 360.16
  L 79.53 350.28
  A 3.13 3.10 -50.5 0 1 79.30 347.79
  L 84.94 330.71
  A 0.51 0.51 0.0 0 1 85.74 330.47
  Q 98.38 340.77 113.85 342.48
  A 0.87 0.86 -87.1 0 1 114.62 343.34
  L 114.59 388.71
  A 0.80 0.79 0.0 0 1 113.79 389.50
  L 62.00 389.47
  A 0.23 0.22 0.0 0 1 61.77 389.25
  L 61.76 368.88
  A 1.67 1.65 68.6 0 1 62.28 367.67
  L 70.49 359.83
  A 0.59 0.59 0.0 0 1 71.43 360.00
  C 73.17 363.52 75.48 369.06 79.02 371.12
  Q 83.69 373.83 88.83 376.67
  Z"
/>
<path fill="#fdb03e" d="
  M 186.85 376.43
  C 189.76 375.20 191.63 373.80 192.11 370.48
  Q 192.72 366.24 193.48 362.38
  A 1.96 1.95 85.4 0 1 194.72 360.92
  L 204.36 357.37
  Q 205.76 356.86 206.55 358.12
  C 208.45 361.13 210.47 365.60 214.08 366.63
  Q 220.40 368.44 226.46 370.03
  A 3.77 3.77 0.0 0 1 228.74 371.74
  L 238.95 388.73
  A 0.51 0.51 0.0 0 1 238.51 389.51
  L 172.94 389.49
  Q 172.04 389.49 172.44 388.69
  L 175.38 382.75
  A 4.71 4.68 -89.7 0 1 177.52 380.62
  Q 181.85 378.54 186.85 376.43
  Z"
/>
</svg>
